:FULLY-SPECIFIED
:FORCE-ALL-JOINTS-BE-3DOF
:DEGREES
985
root 1.11353 15.1526 32.4934 5.372 -4.81676 4.12027
lfemur 8.78136 1.8949 5.1733
ltibia -0.00335486 0 0
lfoot -30.1226 -11.7339 0.000403589
ltoes -33.8608 0 0
rfemur -33.0322 -15.6807 -6.20602
rtibia 50.8032 -0 0
rfoot -22.7718 5.18086 -0.000355189
rtoes -42.0759 0 0
lowerback -1.50615 -0.384732 0.69058
upperback -0.753526 -0.519297 -5.87527
thorax 0.0080196 -0.277099 -6.49255
lowerneck -6.71289 1.19398 5.82222
upperneck 1.07928 1.01033 3.35484
head 1.48153 0.608423 0.101214
lclavicle 2.65378e-014 4.45278e-014 0
lhumerus -58.2448 -44.9414 114.787
lradius 54.9777 -0 0
lwrist 24.9623 0 0
lhand 37.2514 24.432 0.000163178
lfingers 7.12502 -0 0
lthumb 60.0806 38.1302 0.000744359
rclavicle 2.65378e-014 4.45278e-014 0
rhumerus 3.87063 -24.8737 -0.0281634
rradius 28.0206 -0 0
rwrist -11.2817 0 0
rhand -31.4585 -44.7224 -0.00297249
rfingers 7.12502 -0 0
rthumb -4.72593 -74.6511 -0.00262811
986
root 1.11759 15.1546 32.488 5.33545 -4.75055 4.11128
lfemur 8.75895 1.82193 5.16998
ltibia -0.00157388 0 0
lfoot -30.1179 -11.7105 0.000181419
ltoes -33.8809 0 0
rfemur -32.937 -15.6414 -6.22486
rtibia 50.7332 -0 0
rfoot -22.7405 5.08505 -0.000274882
rtoes -42.1433 0 0
lowerback -1.501 -0.375688 0.683868
upperback -0.738952 -0.506379 -5.86747
thorax 0.0218598 -0.270006 -6.48024
lowerneck -6.74072 1.18397 5.82009
upperneck 1.1322 0.992581 3.35481
head 1.50332 0.601603 0.101291
lclavicle 2.65378e-014 4.45278e-014 0
lhumerus -58.2504 -45.0102 114.813
lradius 54.9994 -0 0
lwrist 24.9641 0 0
lhand 37.2483 24.4093 0.000108652
lfingers 7.12502 -0 0
lthumb 60.0778 38.109 0.000365208
rclavicle 2.65378e-014 4.45278e-014 0
rhumerus 3.82512 -24.8535 -0.0930697
rradius 28.0009 -0 0
rwrist -11.2318 0 0
rhand -31.4672 -44.6292 -0.00131632
rfingers 7.12502 -0 0
rthumb -4.73433 -74.5569 -0.00115758
987
root 1.12105 15.1562 32.4829 5.30127 -4.69095 4.10059
lfemur 8.74017 1.75574 5.17103
ltibia -0.00041418 0 0
lfoot -30.1155 -11.6845 4.07385e-005
ltoes -33.9024 0 0
rfemur -32.8527 -15.6098 -6.23793
rtibia 50.6735 -0 0
rfoot -22.716 5.00182 -0.000149084
rtoes -42.2045 0 0
lowerback -1.49486 -0.367227 0.676875
upperback -0.725246 -0.49433 -5.85988
thorax 0.0341378 -0.263397 -6.46799
lowerneck -6.76648 1.17532 5.82084
upperneck 1.17872 0.976825 3.35585
head 1.52271 0.595587 0.101249
lclavicle 2.65378e-014 4.45278e-014 0
lhumerus -58.2569 -45.0761 114.84
lradius 55.0202 -0 0
lwrist 24.9663 0 0
lhand 37.2421 24.3914 5.4633e-005
lfingers 7.12502 -0 0
lthumb 60.0723 38.0959 0.000108765
rclavicle 2.65378e-014 4.45278e-014 0
rhumerus 3.78317 -24.8219 -0.143745
rradius 27.9822 -0 0
rwrist -11.183 0 0
rhand -31.4636 -44.5396 -0.000271053
rfingers 7.12502 -0 0
rthumb -4.7308 -74.4668 -0.000231978
988
root 1.1238 15.1573 32.4781 5.2697 -4.63928 364.088
lfemur 8.7258 1.6976 5.17712
ltibia 1.90833e-014 0 0
lfoot -30.1159 -11.6552 0
ltoes -33.9256 0 0
rfemur -32.7814 -15.5868 -6.24436
rtibia 50.6256 0 0
rfoot -22.6997 4.93313 0
rtoes -42.2585 0 0
lowerback -1.48754 -0.359459 0.669615
upperback -0.712469 -0.483304 -5.85243
thorax 0.0446671 -0.257355 -6.4557
lowerneck -6.78983 1.16834 5.82499
upperneck 1.21788 0.963487 3.35806
head 1.53935 0.590558 0.101043
lclavicle -1.22253e-014 0 0
lhumerus -58.2643 -45.1387 114.869
lradius 55.0398 0 0
lwrist 24.9687 0 0
lhand 37.2319 24.379 0
lfingers 7.12502 0 0
lthumb 60.0636 38.0924 0
rclavicle -1.22253e-014 0 0
rhumerus 3.74548 -24.7764 -0.17803
rradius 27.9644 0 0
rwrist -11.1351 0 0
rhand -31.4451 -44.4536 0
rfingers 7.12502 0 0
rthumb -4.71295 -794.381 0
989
root 1.12604 15.1581 32.4735 5.2404 -4.59128 4.07363
lfemur 8.713 1.64359 5.18724
ltibia 1.90833e-014 -0 0
lfoot -30.1176 -11.6237 1.54077e-005
ltoes -33.9494 0 0
rfemur -32.7179 -15.5711 -6.24576
rtibia 50.5852 -0 0
rfoot -22.689 4.87312 0.000139434
rtoes -42.3102 0 0
lowerback -1.47905 -0.352103 0.662003
upperback -0.700654 -0.472919 -5.84544
thorax 0.0534585 -0.251686 -6.4437
lowerneck -6.81206 1.16211 5.83102
upperneck 1.25174 0.951276 3.36153
head 1.55411 0.585948 0.100924
lclavicle -1.22253e-014 0 0
lhumerus -58.2739 -45.2002 114.9
lradius 55.0596 -0 0
lwrist 24.9715 0 0
lhand 37.2197 24.371 -5.32681e-005
lfingers 7.12502 -0 0
lthumb 60.0532 38.0955 -2.62744e-005
rclavicle -1.22253e-014 0 0
rhumerus 3.70973 -24.7237 -0.200105
rradius 27.9478 -0 0
rwrist -11.0907 0 0
rhand -31.4182 -44.3721 -0.000155525
rfingers 7.12502 -0 0
rthumb -4.68698 -74.3001 -0.000149937
990
root 1.12803 15.1588 32.469 5.2128 -4.54196 4.05786
lfemur 8.69857 1.58911 5.1998
ltibia 1.90833e-014 -0 0
lfoot -30.1186 -11.5915 3.00953e-005
ltoes -33.9723 0 0
rfemur -32.656 -15.5603 -6.2445
rtibia 50.5466 -0 0
rfoot -22.6806 4.81478 0.000250279
rtoes -42.3648 0 0
lowerback -1.46961 -0.344808 0.653953
upperback -0.689752 -0.462679 -5.8393
thorax 0.0607441 -0.246136 -6.43234
lowerneck -6.83465 1.15553 5.83708
upperneck 1.28308 0.938646 3.3662
head 1.56813 0.581081 0.101146
lclavicle -1.22253e-014 0 0
lhumerus -58.2868 -45.2628 114.932
lradius 55.0812 -0 0
lwrist 24.9748 0 0
lhand 37.2078 24.3659 -0.000102302
lfingers 7.12502 -0 0
lthumb 60.043 38.1012 -5.20711e-005
rclavicle -1.22253e-014 0 0
rhumerus 3.6732 -24.6723 -0.215911
rradius 27.9326 -0 0
rwrist -11.0525 0 0
rhand -31.391 -44.2956 -0.000279816
rfingers 7.12502 -0 0
rthumb -4.66074 -74.2241 -0.000269887
991
root 1.12978 15.1595 32.4647 5.18684 -4.49155 4.04082
lfemur 8.6827 1.53433 5.21459
ltibia 1.90833e-014 -0 0
lfoot -30.1191 -11.5588 4.36162e-005
ltoes -33.9943 0 0
rfemur -32.5956 -15.5539 -6.24082
rtibia 50.5097 -0 0
rfoot -22.6741 4.75828 0.000332523
rtoes -42.4218 0 0
lowerback -1.45938 -0.337571 0.64548
upperback -0.679707 -0.452575 -5.83397
thorax 0.0666695 -0.240697 -6.42159
lowerneck -6.85748 1.14864 5.84322
upperneck 1.31203 0.925641 3.37195
head 1.58142 0.575979 0.10167
lclavicle -1.22253e-014 0 0
lhumerus -58.3027 -45.3264 114.966
lradius 55.1042 -0 0
lwrist 24.9786 0 0
lhand 37.1962 24.3636 -0.00014639
lfingers 7.12502 -0 0
lthumb 60.0331 38.1093 -7.65373e-005
rclavicle -1.22253e-014 0 0
rhumerus 3.63604 -24.6223 -0.225937
rradius 27.9187 -0 0
rwrist -11.0197 0 0
rhand -31.3636 -44.2237 -0.000374628
rfingers 7.12502 -0 0
rthumb -4.63429 -74.1528 -0.000361514
